<svg width="445" height="445" viewBox="0 0 445 445" fill="none" xmlns="http://www.w3.org/2000/svg">
<path d="M268.319 6.41671C274.792 -3.4731 290.134 0.63783 290.795 12.4391L299.705 171.559C299.923 175.443 301.972 178.992 305.226 181.122L438.573 268.399C448.463 274.871 444.352 290.214 432.551 290.874L273.431 299.785C269.547 300.002 265.998 302.051 263.868 305.306L176.591 438.653C170.118 448.542 154.776 444.432 154.115 432.63L145.205 273.51C144.988 269.627 142.938 266.077 139.684 263.947L6.33715 176.671C-3.55266 170.198 0.558271 154.856 12.3596 154.195L171.48 145.285C175.363 145.067 178.912 143.018 181.042 139.763L268.319 6.41671Z" fill="url(#paint0_linear_481_15)"/>
<defs>
<linearGradient id="paint0_linear_481_15" x1="-91.0796" y1="-91.0002" x2="535.99" y2="536.07" gradientUnits="userSpaceOnUse">
<stop offset="0.255" stop-color="white"/>
<stop offset="0.4" stop-color="#E692AB"/>
<stop offset="0.56" stop-color="#DE2F64"/>
<stop offset="0.75" stop-color="#15126A"/>
</linearGradient>
</defs>
</svg>
