<svg width="800" height="443" viewBox="0 0 800 443" fill="none" xmlns="http://www.w3.org/2000/svg">
<g clip-path="url(#clip0_486_3)">
<path d="M155 30.8742C155.826 16.1226 175.004 10.984 183.095 23.3462L259.632 140.285C262.295 144.353 266.731 146.914 271.586 147.186L411.126 155C425.877 155.826 431.016 175.004 418.654 183.095L301.715 259.632C297.647 262.294 295.086 266.731 294.814 271.585L287 411.126C286.174 425.877 266.996 431.016 258.905 418.653L182.368 301.715C179.706 297.647 175.269 295.086 170.415 294.814L30.8745 287C16.1228 286.174 10.9842 266.996 23.3465 258.905L140.285 182.368C144.353 179.705 146.914 175.269 147.186 170.414L155 30.8742Z" fill="#0E0B0C"/>
<path d="M206.457 20.2708C211.073 6.23567 230.927 6.2357 235.543 20.2709L279.206 153.034C280.725 157.652 284.348 161.275 288.966 162.794L421.729 206.457C435.764 211.073 435.764 230.927 421.729 235.543L288.966 279.206C284.348 280.725 280.725 284.348 279.206 288.966L235.543 421.729C230.927 435.765 211.073 435.765 206.457 421.729L162.794 288.966C161.275 284.348 157.652 280.725 153.034 279.206L20.2705 235.543C6.23536 230.927 6.23539 211.073 20.2706 206.457L153.034 162.794C157.652 161.275 161.275 157.652 162.794 153.034L206.457 20.2708Z" fill="url(#paint0_linear_486_3)"/>
<path d="M258.905 23.3463C266.996 10.9841 286.174 16.1227 287 30.8744L294.814 170.414C295.086 175.269 297.647 179.705 301.715 182.368L418.654 258.905C431.016 266.996 425.877 286.174 411.126 287L271.585 294.814C266.731 295.086 262.294 297.647 259.632 301.715L183.095 418.654C175.004 431.016 155.826 425.877 155 411.126L147.186 271.586C146.914 266.731 144.353 262.295 140.285 259.632L23.3463 183.095C10.984 175.004 16.1227 155.826 30.8743 155L170.414 147.186C175.269 146.914 179.705 144.353 182.368 140.285L258.905 23.3463Z" fill="url(#paint1_linear_486_3)"/>
<path d="M246.204 369.121C246.508 373.422 245.367 376.752 242.779 379.111C240.229 381.471 236.194 382.651 230.676 382.651C227.022 382.651 223.901 382.175 221.313 381.224C218.725 380.31 216.689 379.016 215.205 377.342C213.72 375.705 212.788 373.802 212.407 371.633C212.065 369.92 212.16 368.398 212.693 367.066C213.226 365.734 214.158 364.554 215.49 363.526C216.86 362.499 218.554 361.604 220.571 360.843C222.626 360.082 224.929 359.416 227.479 358.845L237.07 356.561C242.626 355.305 247.441 353.631 251.513 351.538C255.623 349.482 258.954 346.99 261.504 344.059C264.053 341.167 265.804 337.836 266.756 334.069C267.707 330.301 267.783 326.076 266.984 321.395C265.766 314.011 262.855 307.675 258.249 302.384C253.682 297.094 247.707 293.041 240.324 290.225C232.978 287.408 224.434 286 214.691 286C204.948 286 196.67 287.465 189.857 290.396C183.083 293.364 178.173 297.836 175.129 303.812C172.084 309.787 171.266 317.323 172.674 326.419H199.677C199.258 322.651 199.734 319.511 201.104 316.999C202.512 314.487 204.681 312.584 207.612 311.29C210.543 309.996 214.082 309.349 218.23 309.349C222.036 309.349 225.367 309.863 228.221 310.891C231.113 311.918 233.416 313.345 235.129 315.172C236.879 316.999 237.945 319.092 238.326 321.452C238.706 323.621 238.345 325.505 237.241 327.104C236.175 328.702 234.348 330.091 231.76 331.271C229.21 332.451 225.861 333.517 221.713 334.468L210.01 337.323C200.343 339.682 193.016 343.45 188.031 348.626C183.083 353.802 181.332 360.824 182.779 369.692C183.996 376.961 187.003 383.317 191.798 388.759C196.632 394.202 202.74 398.426 210.124 401.433C217.545 404.478 225.709 406 234.615 406C243.673 406 251.285 404.459 257.45 401.376C263.654 398.331 268.126 394.03 270.866 388.474C273.644 382.955 274.444 376.504 273.264 369.121H246.204Z" fill="url(#paint2_linear_486_3)" fill-opacity="0.4"/>
<path d="M287.365 381.452L291.247 404.402H390.067L386.185 381.452H350.733L335.205 287.484H307.346L322.874 381.452H287.365Z" fill="url(#paint3_linear_486_3)" fill-opacity="0.4"/>
<path d="M384.458 287.484L403.868 404.402H485.39L481.508 381.452H428.245L424.363 357.475H473.459L469.577 334.468H420.481L416.599 310.434H469.862L465.98 287.484H384.458Z" fill="url(#paint4_linear_486_3)" fill-opacity="0.4"/>
<path d="M560.348 369.121C560.652 373.422 559.51 376.752 556.922 379.111C554.372 381.471 550.338 382.651 544.819 382.651C541.166 382.651 538.045 382.175 535.457 381.224C532.869 380.31 530.833 379.016 529.348 377.342C527.864 375.705 526.932 373.802 526.551 371.633C526.209 369.92 526.304 368.398 526.837 367.066C527.369 365.734 528.302 364.554 529.634 363.526C531.004 362.499 532.698 361.604 534.715 360.843C536.77 360.082 539.073 359.416 541.622 358.845L551.213 356.561C556.77 355.305 561.584 353.631 565.657 351.538C569.767 349.482 573.097 346.99 575.647 344.059C578.197 341.167 579.948 337.836 580.899 334.069C581.851 330.301 581.927 326.076 581.128 321.395C579.91 314.011 576.998 307.675 572.393 302.384C567.826 297.094 561.851 293.041 554.467 290.225C547.122 287.408 538.578 286 528.835 286C519.092 286 510.814 287.465 504.001 290.396C497.227 293.364 492.317 297.836 489.272 303.812C486.228 309.787 485.409 317.323 486.818 326.419H513.82C513.402 322.651 513.877 319.511 515.248 316.999C516.656 314.487 518.825 312.584 521.756 311.29C524.686 309.996 528.226 309.349 532.374 309.349C536.18 309.349 539.51 309.863 542.365 310.891C545.257 311.918 547.56 313.345 549.272 315.172C551.023 316.999 552.089 319.092 552.469 321.452C552.85 323.621 552.488 325.505 551.385 327.104C550.319 328.702 548.492 330.091 545.904 331.271C543.354 332.451 540.005 333.517 535.857 334.468L524.153 337.323C514.486 339.682 507.16 343.45 502.174 348.626C497.227 353.802 495.476 360.824 496.922 369.692C498.14 376.961 501.147 383.317 505.942 388.759C510.776 394.202 516.884 398.426 524.268 401.433C531.689 404.478 539.853 406 548.759 406C557.817 406 565.428 404.459 571.594 401.376C577.798 398.331 582.269 394.03 585.01 388.474C587.788 382.955 588.587 376.504 587.407 369.121H560.348Z" fill="url(#paint5_linear_486_3)" fill-opacity="0.4"/>
<path d="M589.805 287.484L609.215 404.402H690.738L686.856 381.452H633.592L629.71 357.475H678.806L674.924 334.468H625.828L621.946 310.434H675.21L671.328 287.484H589.805Z" fill="url(#paint6_linear_486_3)" fill-opacity="0.4"/>
<path d="M689.025 287.484L708.435 404.402H756.732C765.485 404.402 772.793 402.822 778.654 399.663C784.515 396.542 788.682 392.051 791.156 386.19C793.63 380.367 794.201 373.46 792.869 365.467C791.575 357.399 788.682 350.529 784.191 344.858C779.739 339.226 773.992 334.925 766.951 331.956C759.948 328.988 751.994 327.503 743.088 327.503H712.545L716.313 349.768H741.603C745.828 349.768 749.482 350.32 752.564 351.423C755.647 352.565 758.102 354.278 759.929 356.561C761.794 358.883 763.031 361.852 763.64 365.467C764.211 369.083 763.944 372.07 762.84 374.43C761.775 376.828 759.891 378.617 757.189 379.796C754.524 381.014 751.099 381.623 746.913 381.623H732.983L717.284 287.484H689.025ZM763.697 340.919L783.963 287.484H753.135L733.497 340.919H763.697Z" fill="url(#paint7_linear_486_3)" fill-opacity="0.4"/>
<path d="M245.841 196.75C246.144 192.47 245.008 189.155 242.432 186.807C239.894 184.458 235.879 183.284 230.386 183.284C226.75 183.284 223.644 183.758 221.068 184.705C218.492 185.614 216.466 186.902 214.989 188.568C213.511 190.197 212.583 192.091 212.205 194.25C211.864 195.955 211.958 197.47 212.489 198.795C213.019 200.121 213.947 201.295 215.273 202.318C216.636 203.341 218.322 204.231 220.33 204.989C222.375 205.746 224.667 206.409 227.205 206.977L236.75 209.25C242.28 210.5 247.072 212.167 251.125 214.25C255.216 216.295 258.53 218.777 261.068 221.693C263.606 224.572 265.348 227.886 266.295 231.636C267.242 235.386 267.318 239.591 266.523 244.25C265.311 251.598 262.413 257.905 257.83 263.17C253.284 268.436 247.337 272.47 239.989 275.273C232.678 278.076 224.174 279.477 214.477 279.477C204.78 279.477 196.542 278.019 189.761 275.102C183.019 272.148 178.133 267.697 175.102 261.75C172.072 255.803 171.258 248.303 172.659 239.25H199.534C199.117 243 199.591 246.125 200.955 248.625C202.356 251.125 204.515 253.019 207.432 254.307C210.348 255.595 213.871 256.239 218 256.239C221.788 256.239 225.102 255.727 227.943 254.705C230.822 253.682 233.114 252.261 234.818 250.443C236.561 248.625 237.621 246.542 238 244.193C238.379 242.034 238.019 240.159 236.92 238.568C235.86 236.977 234.042 235.595 231.466 234.42C228.928 233.246 225.595 232.186 221.466 231.239L209.818 228.398C200.197 226.049 192.905 222.299 187.943 217.148C183.019 211.996 181.277 205.008 182.716 196.182C183.928 188.947 186.92 182.621 191.693 177.205C196.504 171.788 202.583 167.583 209.932 164.591C217.318 161.561 225.443 160.045 234.307 160.045C243.322 160.045 250.898 161.58 257.034 164.648C263.208 167.678 267.659 171.958 270.386 177.489C273.152 182.981 273.947 189.402 272.773 196.75H245.841ZM286.807 184.477L290.67 161.636H389.023L385.159 184.477H349.875L334.42 278H306.693L322.148 184.477H286.807ZM383.44 278L402.759 161.636H483.895L480.031 184.477H427.02L423.156 208.341H472.02L468.156 231.239H419.293L415.429 255.159H468.44L464.577 278H383.44ZM558.497 196.75C558.8 192.47 557.664 189.155 555.088 186.807C552.55 184.458 548.535 183.284 543.043 183.284C539.406 183.284 536.3 183.758 533.724 184.705C531.149 185.614 529.122 186.902 527.645 188.568C526.168 190.197 525.24 192.091 524.861 194.25C524.52 195.955 524.615 197.47 525.145 198.795C525.675 200.121 526.603 201.295 527.929 202.318C529.293 203.341 530.978 204.231 532.986 204.989C535.031 205.746 537.323 206.409 539.861 206.977L549.406 209.25C554.937 210.5 559.728 212.167 563.781 214.25C567.872 216.295 571.187 218.777 573.724 221.693C576.262 224.572 578.005 227.886 578.952 231.636C579.899 235.386 579.974 239.591 579.179 244.25C577.967 251.598 575.069 257.905 570.486 263.17C565.94 268.436 559.993 272.47 552.645 275.273C545.334 278.076 536.83 279.477 527.134 279.477C517.437 279.477 509.198 278.019 502.418 275.102C495.675 272.148 490.789 267.697 487.759 261.75C484.728 255.803 483.914 248.303 485.315 239.25H512.19C511.774 243 512.247 246.125 513.611 248.625C515.012 251.125 517.171 253.019 520.088 254.307C523.005 255.595 526.527 256.239 530.656 256.239C534.444 256.239 537.759 255.727 540.599 254.705C543.478 253.682 545.77 252.261 547.474 250.443C549.217 248.625 550.277 246.542 550.656 244.193C551.035 242.034 550.675 240.159 549.577 238.568C548.516 236.977 546.698 235.595 544.122 234.42C541.584 233.246 538.251 232.186 534.122 231.239L522.474 228.398C512.853 226.049 505.562 222.299 500.599 217.148C495.675 211.996 493.933 205.008 495.372 196.182C496.584 188.947 499.577 182.621 504.349 177.205C509.16 171.788 515.24 167.583 522.588 164.591C529.974 161.561 538.099 160.045 546.963 160.045C555.978 160.045 563.554 161.58 569.69 164.648C575.865 167.678 580.315 171.958 583.043 177.489C585.808 182.981 586.603 189.402 585.429 196.75H558.497ZM587.815 278L607.134 161.636H688.27L684.406 184.477H631.395L627.531 208.341H676.395L672.531 231.239H623.668L619.804 255.159H672.815L668.952 278H587.815ZM686.565 278L705.884 161.636H753.952C762.664 161.636 769.937 163.208 775.77 166.352C781.603 169.458 785.751 173.928 788.213 179.761C790.675 185.557 791.243 192.432 789.918 200.386C788.63 208.417 785.751 215.254 781.281 220.898C776.849 226.504 771.13 230.784 764.122 233.739C757.152 236.693 749.236 238.17 740.372 238.17H709.974L713.724 216.011H738.895C743.099 216.011 746.736 215.462 749.804 214.364C752.872 213.227 755.315 211.523 757.134 209.25C758.99 206.939 760.221 203.985 760.827 200.386C761.395 196.788 761.13 193.814 760.031 191.466C758.971 189.08 757.096 187.299 754.406 186.125C751.755 184.913 748.346 184.307 744.179 184.307H730.315L714.69 278H686.565ZM760.884 224.818L781.054 278H750.372L730.827 224.818H760.884Z" fill="url(#paint8_linear_486_3)"/>
</g>
<defs>
<linearGradient id="paint0_linear_486_3" x1="37.2498" y1="52.8752" x2="422.25" y2="339.75" gradientUnits="userSpaceOnUse">
<stop stop-color="#2C181E"/>
<stop offset="0.7" stop-color="#391721"/>
<stop offset="1" stop-color="#2D115E"/>
</linearGradient>
<linearGradient id="paint1_linear_486_3" x1="-79" y1="-79" x2="521" y2="521" gradientUnits="userSpaceOnUse">
<stop offset="0.255" stop-color="white"/>
<stop offset="0.4" stop-color="#E692AB"/>
<stop offset="0.56" stop-color="#DE2F64"/>
<stop offset="0.75" stop-color="#15126A"/>
</linearGradient>
<linearGradient id="paint2_linear_486_3" x1="85.5059" y1="421" x2="793.984" y2="300.373" gradientUnits="userSpaceOnUse">
<stop stop-color="white"/>
<stop offset="1"/>
</linearGradient>
<linearGradient id="paint3_linear_486_3" x1="85.5059" y1="421" x2="793.984" y2="300.373" gradientUnits="userSpaceOnUse">
<stop stop-color="white"/>
<stop offset="1"/>
</linearGradient>
<linearGradient id="paint4_linear_486_3" x1="85.5059" y1="421" x2="793.984" y2="300.373" gradientUnits="userSpaceOnUse">
<stop stop-color="white"/>
<stop offset="1"/>
</linearGradient>
<linearGradient id="paint5_linear_486_3" x1="85.5059" y1="421" x2="793.984" y2="300.373" gradientUnits="userSpaceOnUse">
<stop stop-color="white"/>
<stop offset="1"/>
</linearGradient>
<linearGradient id="paint6_linear_486_3" x1="85.5059" y1="421" x2="793.984" y2="300.373" gradientUnits="userSpaceOnUse">
<stop stop-color="white"/>
<stop offset="1"/>
</linearGradient>
<linearGradient id="paint7_linear_486_3" x1="85.5059" y1="421" x2="793.984" y2="300.373" gradientUnits="userSpaceOnUse">
<stop stop-color="white"/>
<stop offset="1"/>
</linearGradient>
<linearGradient id="paint8_linear_486_3" x1="443.5" y1="220" x2="1365.5" y2="220" gradientUnits="userSpaceOnUse">
<stop offset="0.05" stop-color="white"/>
<stop offset="1" stop-color="#58229C"/>
</linearGradient>
<clipPath id="clip0_486_3">
<rect width="800" height="443" fill="white"/>
</clipPath>
</defs>
</svg>
